<svg height="24" width="24" xmlns="http://www.w3.org/2000/svg"><path d="m.34408602.17204303h23.65591398v23.36931997h-23.65591398z" fill="#fff" stroke-width=".979674"/><g fill="#2e6d8e" stroke="#2e6d8e" stroke-width=".2" transform="scale(.98972558 1.0103811)"><path d="m7.204913 15.473747q-1.3749055 0-2.1639817.920588-.7890762.920589-.7890762 2.522653 0 1.590108.7292977 2.522653.7412534.920589 2.2118045.920589.5499622 0 1.0521016-.09565.5021394-.09564.9923231-.239114v.932545q-.478228.179335-.9923231.263025-.5021394.08369-1.2075257.08369-1.3031713 0-2.1759374-.538006-.8727661-.538007-1.315127-1.53033-.4304051-.992323-.4304051-2.331362 0-1.291215.4662722-2.271583.478228-.992323 1.3988169-1.542285.9205889-.561918 2.2357159-.561918 1.3509941 0 2.3552729.50214l-.4304052.908637q-.3945381-.179336-.8847218-.322804-.478228-.143468-1.0521016-.143468z"/><path d="m13.38601 16.669317q1.171658 0 1.733576.514095.561918.514095.561918 1.637931v4.36383h-.765165l-.203247-.908633h-.04782q-.41845.526051-.884722.77712-.466273.25107-1.267304.25107-.872767 0-1.44664-.454317-.573874-.466272-.573874-1.446639 0-.956456.753209-1.470551.753209-.526051 2.319406-.573874l1.087969-.03587v-.382579q0-.801032-.346715-1.111881-.346716-.310848-.980368-.310848-.502139 0-.956456.155424-.454316.143469-.848855.33476l-.322803-.789076q.418449-.227159.992323-.382583.573873-.167379 1.19557-.167379zm1.255348 3.383463-.9445.03587q-1.19557.04782-1.661842.382582-.454317.33476-.454317.9445 0 .538007.322804.789077.334759.251069.848855.251069.801031 0 1.339038-.442361.549962-.454316.549962-1.386861z"/><path d="m19.80623 22.44392q.239114 0 .490184-.03587.25107-.03587.406494-.09565v.801032q-.16738.08369-.478228.131513-.310848.05978-.597785.05978-.502139 0-.932545-.16738-.418449-.179335-.681475-.60974-.263025-.430406-.263025-1.207526v-3.730179h-.908633v-.502139l.920589-.418449.418449-1.36295h.621697v1.470551h1.853133v.812987h-1.853133v3.706267q0 .58583.274981.872767.286937.274981.729297.274981z"/></g><g stroke-width=".1"><g fill="#1f9f88" stroke="#1f9f88" transform="scale(.98972558 1.0103811)"><path d="m10.412969 4.5553188h-.5185631v-1.9186826h-2.1088223v1.9186826h-.5185629v-4.11393218h.5185629v1.74006658h2.1088223v-1.74006658h.5185631z"/><path d="m14.152379 3.005392q0 .7663207-.391803 1.1869328-.386042.4206121-1.04865.4206121-.409088 0-.73175-.1843779-.316899-.1901397-.501277-.5473719-.184378-.362994-.184378-.8757951 0-.7663207.38028-1.181171.386041-.4148503 1.054411-.4148503.41485 0 .737511.1901397.322662.1843779.501278.5416101.184378.3514704.184378.8642715zm-2.333533 0q0 .5473719.213187.8700333.218949.3168995.691417.3168995.466707 0 .685655-.3168995.218949-.3226614.218949-.8700333 0-.5473719-.218949-.8585097-.218948-.3111377-.691417-.3111377-.472468 0-.685655.3111377-.213187.3111378-.213187.8585097z"/><path d="m16.39372 1.4093707q.08643 0 .184378.011524.09795.00576.178616.023047l-.06338.4667066q-.0749-.017285-.167092-.028809-.09219-.011524-.167093-.011524-.236234 0-.443659.1325216-.207425.1267598-.334185.362994-.120998.2304724-.120998.5416101v1.6478776h-.507039v-3.08833h.41485l.05762.5646573h.02305q.144046-.2535196.38028-.4378975.241996-.1843779.564657-.1843779z"/><path d="m19.343768 3.702571q0 .4494211-.334185.6798935-.334185.2304724-.898842.2304724-.322662 0-.558896-.051856-.230472-.051856-.409088-.1440452v-.4609451q.184378.092189.443659.1728543.265043.074904.535848.074904.386042 0 .558896-.120998.172854-.1267598.172854-.3341849 0-.1152362-.06338-.2074252-.06338-.0921895-.230472-.1843784-.161331-.092189-.466707-.2074252-.299614-.1152362-.512801-.2304724-.213187-.1152362-.328423-.2765668-.115236-.1613307-.115236-.4148503 0-.3918031.316899-.6049901.322662-.2131869.841225-.2131869.282328 0 .524324.057618.247758.057618.460945.149807l-.172854.4033268q-.195902-.0806653-.409089-.1382834-.213187-.0576181-.437897-.0576181-.311138 0-.47823.1037126-.161331.097951-.161331.270805 0 .1325216.0749.2189488.0749.086427.247758.1728543.178616.086427.472469.1959015.293852.1094744.501277.2247106.207425.1152362.3169.2823287.109474.1613307.109474.4090885z"/><path d="m21.285498 1.4093707q.391803 0 .679893.1728543.288091.1728543.437898.4897538.155569.3111377.155569.7317498v.305376h-2.114584q.01152.5243247.265043.8008915.259281.2708051.720226.2708051.293852 0 .518563-.051856.230472-.057618.472468-.1613307v.4436594q-.236234.1037126-.466706.149807-.230473.051856-.547372.051856-.44366 0-.777845-.1786161-.334185-.1786161-.524324-.5300865-.184378-.3514704-.184378-.8700333 0-.5070392.167092-.8700332.172855-.3629941.478231-.5588956.311137-.1959015.720226-.1959015zm-.0058.4148503q-.362994 0-.576181.2362342-.207425.2304724-.247758.6453227h1.572974q-.005724-.3918031-.18434-.6337991-.178616-.2477578-.564657-.2477578z"/></g><g fill="#297a8e" stroke="#297a8e" transform="matrix(.98972558 0 0 1.0103811 0 -.114695)"><path d="m1.0166086 13.582155h-.31113811v-2.468362h1.37937891v.27311h-1.0682408v.874644h1.0025561v.27311h-1.0025561z"/><path d="m3.3224844 11.694584q.051856 0 .1106269.0069.05877.0035.1071698.01383l-.038028.280024q-.044942-.01037-.1002556-.01728-.055313-.0069-.1002556-.0069-.1417407 0-.2661959.07951-.1244553.07606-.2005113.217797-.072599.138284-.072599.324967v.988727h-.304224v-1.853h.2489105l.034571.338795h.013828q.086427-.152112.2281679-.262739.1451978-.110627.3387948-.110627z"/><path d="m5.4278509 12.652198q0 .459793-.2350821.712161-.231625.252367-.6291904.252367-.2454534 0-.4390504-.110627-.1901399-.114084-.3007668-.328423-.1106269-.217797-.1106269-.525478 0-.459793.2281679-.708703.2316251-.248911.6326475-.248911.2489105 0 .4425075.114084.193597.110627.3007668.324967.1106269.210882.1106269.518563zm-1.4001214 0q0 .328424.1279123.522021.1313694.19014.4148508.19014.2800243 0 .4113937-.19014.1313694-.193597.1313694-.522021 0-.328423-.1313694-.515106-.1313694-.186683-.4148508-.186683-.2834814 0-.4113937.186683-.1279123.186683-.1279123.515106z"/><path d="m6.5652316 11.694584q.1832257 0 .3284235.06914.1486549.06914.2523676.210882h.017285l.041485-.245453h.2419963v1.884114q0 .397565-.2039683.598077-.2005112.200511-.6257333.200511-.4079366 0-.6672183-.117541v-.280025q.2731101.145198.6845038.145198.2385392 0 .3733657-.14174.1382836-.138284.1382836-.38028v-.0726q0-.04149.00346-.117541.00346-.07951.00691-.110627h-.013828q-.1866829.280024-.5738769.280024-.3595374 0-.5635057-.252367-.2005112-.252368-.2005112-.705247 0-.442507.2005112-.701789.2039683-.262739.5600486-.262739zm.041485.255825q-.231625 0-.3595373.186683-.1279123.183225-.1279123.525477 0 .342252.1244552.525478.1244552.179769.3699086.179769.2800243 0 .4079366-.148655.1279124-.152112.1279124-.48745v-.0726q0-.376823-.1313695-.542763-.1313694-.16594-.4113937-.16594z"/></g><g fill="#01007f" stroke="#01007f" transform="matrix(0 -1.0103811 .98972558 0 0 0)"><path d="m-14.894693 23.705465-.812416-2.164138h-.01383q.01037.10717.01728.290396.0069.179768.0069.376822v1.49692h-.286939v-2.468362h.459793l.76056 2.022398h.01383l.774388-2.022398h.456336v2.468362h-.307681v-1.517662q0-.179769.0069-.35608.01037-.176312.01729-.286939h-.01383l-.822787 2.160681z"/><path d="m-11.278578 22.775508q0 .459793-.235082.712161-.231625.252367-.62919.252367-.245454 0-.439051-.110627-.19014-.114084-.300767-.328423-.110627-.217797-.110627-.525478 0-.459793.228168-.708703.231625-.248911.632648-.248911.24891 0 .442507.114084.193597.110627.300767.324967.110627.210882.110627.518563zm-1.400121 0q0 .328424.127912.522021.131369.19014.414851.19014.280024 0 .411393-.19014.13137-.193597.13137-.522021 0-.328423-.13137-.515106-.131369-.186683-.41485-.186683-.283482 0-.411394.186683-.127912.186683-.127912.515106z"/><path d="m-9.2492681 21.852465v1.853h-.2489105l-.044942-.245453h-.013828q-.089884.145198-.2489105.21434-.1590261.06568-.3387944.06568-.335338 0-.504736-.159026-.169397-.162483-.169397-.515106v-1.213439h.307681v1.192696q0 .442508.411394.442508.3076808 0 .4252218-.172855.1209982-.172854.1209982-.497821v-.964528z"/><path d="m-7.4550378 23.193816q0 .269653-.2005112.407937-.2005112.138283-.539306.138283-.193597 0-.3353377-.03111-.1382836-.03111-.2454534-.08643v-.276567q.1106269.05531.2661959.103713.1590262.04494.3215094.04494.231625 0 .3353377-.0726.1037127-.07606.1037127-.200511 0-.06914-.038028-.124456-.038028-.05531-.1382836-.110626-.096799-.05531-.2800243-.124456-.1797686-.06914-.307681-.138283-.1279123-.06914-.1970541-.165941-.069142-.0968-.069142-.24891 0-.235082.19014-.362994.193597-.127913.5047351-.127913.1693974 0 .3145952.03457.1486548.03457.2765672.08988l-.1037127.241997q-.1175411-.0484-.2454534-.08297-.1279124-.03457-.2627389-.03457-.1866828 0-.2869384.06223-.096799.05877-.096799.162484 0 .07951.044942.131369.044942.05186.1486549.103713.1071698.05186.2834814.117541.1763116.06568.3007668.134826.1244552.06914.1901399.169398.065685.0968.065685.245453z"/><path d="m-6.2899987 21.817894q.2350821 0 .4079366.103713.1728545.103713.2627388.293853.093341.186682.093341.43905v.183226h-1.268752q.00691.314595.1590262.480535.155569.162483.4321362.162483.1763116 0 .3111381-.03111.1382836-.03457.2834814-.0968v.266196q-.1417407.06223-.2800243.08988-.1382836.03111-.3284236.03111-.2661959 0-.4667071-.10717-.2005112-.107169-.3145952-.318052-.1106268-.210882-.1106268-.52202 0-.304224.1002556-.522021.1037127-.217797.2869384-.335338.1866829-.117541.4321363-.117541zm-.00346.248911q-.2177967 0-.345709.14174-.1244553.138284-.1486549.387194h.9437856q-.00346-.235082-.1106269-.380279-.1071698-.148655-.3387948-.148655z"/></g></g><g fill="#46075a" stroke="#46075a" stroke-width=".2" transform="scale(.98972558 1.0103811)"><path d="m8.8439561 7.4675433q0 1.7989752-.9839699 2.7133717-.9740308.904457-2.7233106.904457h-1.9778789v-7.0965101h2.1865998q1.0634826 0 1.8486707.3975636.7951271.3975636 1.222508 1.1728126.4273809.775249.4273809 1.9083052zm-.9442136.029817q0-1.4212899-.7056753-2.0772698-.6957363-.6659187-1.9778789-.6659187h-1.1628735v5.5658902h.9640917q2.882336 0 2.882336-2.8227014z"/><path d="m14.926674 8.4117568q0 1.321899-.675858 2.0474522-.665919.725554-1.808914.725554-.705676 0-1.262265-.318051-.546649-.32799-.8647-.9442135-.3180512-.6261627-.3180512-1.5107417 0-1.3218989.6559802-2.0375134.665919-.7156144 1.818853-.7156144.715615 0 1.272204.3279899.556589.3180509.8647.9342745.318051.6062844.318051 1.4908634zm-4.025331 0q0 .9442136.367746 1.5008026.377686.5466496 1.192691.5466496.805066 0 1.182752-.5466496.377685-.556589.377685-1.5008026 0-.9442135-.377685-1.4809244-.377686-.5367108-1.192691-.5367108-.815005 0-1.182752.5367108-.367746.5367109-.367746 1.4809244z"/><path d="m18.196631 5.658629q.526771 0 .944213.1987817.427381.1987818.725554.6062845h.04969l.119269-.7056753h.695736v5.4168041q0 1.142995-.586406 1.719462-.576467.576468-1.798975.576468-1.172813 0-1.918244-.33793v-.805066q.785188.417442 1.967939.417442.685797 0 1.073422-.407503.397564-.397563.397564-1.0933v-.20872q0-.11927.0099-.33793.0099-.228599.01988-.31805h-.03976q-.53671.805066-1.649888.805066-1.033666 0-1.620072-.725554-.576467-.7255532-.576467-2.027574 0-1.2722035.576467-2.0176352.586451-.7553708 1.610178-.7553708zm.119269.7354926q-.665919 0-1.033666.5367108-.367746.5267718-.367746 1.5107417 0 .9839699.357807 1.5107416.357807.5168323 1.063483.5168323.805066 0 1.172812-.42738.367747-.4373204.367747-1.4014121v-.2087209q0-1.0833608-.377686-1.5604371-.377685-.4770763-1.182751-.4770763z"/></g></svg>